<?xml version="1.0" encoding="UTF-8"?>
<svg xmlns="http://www.w3.org/2000/svg" xmlns:xlink="http://www.w3.org/1999/xlink" width="1208.507001pt" height="703.897463pt" viewBox="0 0 1208.507001 703.897463" version="1.1">
<defs>
<clipPath id="clip1">
  <path d="M 1182 461 L 1208.507812 461 L 1208.507812 497 L 1182 497 Z M 1182 461 "/>
</clipPath>
<clipPath id="clip2">
  <path d="M 247 560 L 835 560 L 835 636.847656 L 247 636.847656 Z M 247 560 "/>
</clipPath>
<clipPath id="clip3">
  <path d="M 247 630.878906 L 836 630.878906 L 836 703.898438 L 247 703.898438 Z M 247 630.878906 "/>
</clipPath>
<clipPath id="clip4">
  <path d="M 609 204.019531 L 620 204.019531 L 620 225.988281 L 609 225.988281 Z M 609 204.019531 "/>
</clipPath>
<clipPath id="clip5">
  <path d="M 655.421875 204.019531 L 668 204.019531 L 668 225.988281 L 655.421875 225.988281 Z M 655.421875 204.019531 "/>
</clipPath>
<clipPath id="clip6">
  <path d="M 692 431 L 703.742188 431 L 703.742188 455.078125 L 692 455.078125 Z M 692 431 "/>
</clipPath>
</defs>
<g id="surface1">
<path style="fill:none;stroke-width:0.751178;stroke-linecap:butt;stroke-linejoin:miter;stroke:rgb(0%,0%,0%);stroke-opacity:1;stroke-miterlimit:4;" d="M 403.34375 259.550781 L 1028.570312 312.890625 L 781.289062 638.503906 L 1.074219 486.355469 Z M 403.34375 259.550781 "/>
<path style="fill:none;stroke-width:0.751178;stroke-linecap:butt;stroke-linejoin:miter;stroke:rgb(0%,0%,0%);stroke-opacity:1;stroke-miterlimit:4;" d="M 183.109375 669.691406 L 749.304688 233.515625 "/>
<path style="fill-rule:evenodd;fill:rgb(0%,0%,0%);fill-opacity:1;stroke-width:1.497049;stroke-linecap:butt;stroke-linejoin:miter;stroke:rgb(0%,0%,0%);stroke-opacity:1;stroke-miterlimit:4;" d="M 363.822316 508.800144 L 354.111586 514.413068 L 354.10922 503.184682 Z M 363.822316 508.800144 " transform="matrix(1,-0.770367,0.770367,1,0,0)"/>
<path style="fill:none;stroke-width:0.751178;stroke-linecap:butt;stroke-linejoin:miter;stroke:rgb(0%,0%,0%);stroke-opacity:1;stroke-miterlimit:4;" d="M 88.222656 337.453125 L 1198.523438 479.328125 "/>
<path style=" stroke:none;fill-rule:evenodd;fill:rgb(0%,0%,0%);fill-opacity:1;" d="M 1206.632812 480.363281 L 1193.574219 485.839844 L 1195.371094 471.78125 Z M 1206.632812 480.363281 "/>
<g clip-path="url(#clip1)" clip-rule="nonzero">
<path style="fill:none;stroke-width:1.874522;stroke-linecap:butt;stroke-linejoin:miter;stroke:rgb(0%,0%,0%);stroke-opacity:1;stroke-miterlimit:4;" d="M 1247.642465 320.939527 L 1235.482216 327.969926 L 1235.482676 313.911274 Z M 1247.642465 320.939527 " transform="matrix(1,0.12778,-0.12778,1,0,0)"/>
</g>
<path style="fill-rule:nonzero;fill:rgb(47.450256%,47.450256%,47.450256%);fill-opacity:1;stroke-width:2.834646;stroke-linecap:butt;stroke-linejoin:miter;stroke:rgb(0%,0%,100%);stroke-opacity:1;stroke-miterlimit:4;" d="M 251.269531 128.074219 C 251.269531 128.074219 316.515625 280.414062 539.773438 277.296875 C 763.03125 274.179688 830.398438 127.867188 830.398438 127.867188 "/>
<path style="fill-rule:nonzero;fill:rgb(70.587158%,70.587158%,70.587158%);fill-opacity:1;stroke-width:2.834646;stroke-linecap:butt;stroke-linejoin:miter;stroke:rgb(0%,0%,100%);stroke-opacity:1;stroke-miterlimit:4;" d="M 830.632812 122.804688 C 830.632812 163.121094 700.898438 195.804688 540.863281 195.804688 C 380.828125 195.804688 251.09375 163.121094 251.09375 122.804688 C 251.09375 82.488281 380.828125 49.804688 540.863281 49.804688 C 700.898438 49.804688 830.632812 82.488281 830.632812 122.804688 Z M 830.632812 122.804688 "/>
<g clip-path="url(#clip2)" clip-rule="nonzero">
<path style="fill:none;stroke-width:0.708661;stroke-linecap:butt;stroke-linejoin:miter;stroke:rgb(0%,0%,100%);stroke-opacity:1;stroke-dasharray:2.834646,2.834646;stroke-miterlimit:4;" d="M 830.734375 637.183594 C 830.734375 677.5 701.003906 710.183594 540.96875 710.183594 C 380.933594 710.183594 251.199219 677.5 251.199219 637.183594 C 251.199219 596.867188 380.933594 564.183594 540.96875 564.183594 C 701.003906 564.183594 830.734375 596.867188 830.734375 637.183594 Z M 830.734375 637.183594 "/>
</g>
<g clip-path="url(#clip3)" clip-rule="nonzero">
<path style="fill:none;stroke-width:0.708661;stroke-linecap:butt;stroke-linejoin:miter;stroke:rgb(0%,0%,100%);stroke-opacity:1;stroke-miterlimit:4;" d="M 831.382812 -630.542969 C 831.382812 -590.226562 701.648438 -557.546875 541.613281 -557.546875 C 381.578125 -557.546875 251.84375 -590.226562 251.84375 -630.542969 C 251.84375 -670.859375 381.578125 -703.542969 541.613281 -703.542969 C 701.648438 -703.542969 831.382812 -670.859375 831.382812 -630.542969 Z M 831.382812 -630.542969 " transform="matrix(1,0,0,-1,0,0)"/>
</g>
<path style="fill:none;stroke-width:0.708661;stroke-linecap:butt;stroke-linejoin:miter;stroke:rgb(0%,0%,100%);stroke-opacity:1;stroke-miterlimit:4;" d="M 251.367188 630.820312 C 251.367188 630.820312 316.613281 478.480469 539.871094 481.597656 C 763.128906 484.714844 830.496094 631.027344 830.496094 631.027344 "/>
<path style="fill:none;stroke-width:2.125984;stroke-linecap:butt;stroke-linejoin:miter;stroke:rgb(0%,0%,0%);stroke-opacity:1;stroke-dasharray:2.125984,6.377953;stroke-miterlimit:4;" d="M 720.398438 206.523438 L 719.480469 485.765625 "/>
<path style="fill-rule:evenodd;fill:rgb(0%,0%,0%);fill-opacity:1;stroke-width:1.000458;stroke-linecap:butt;stroke-linejoin:miter;stroke:rgb(0%,0%,0%);stroke-opacity:1;stroke-miterlimit:4;" d="M 207.899282 -721.071235 C 207.902192 -719.000933 206.220228 -717.319613 204.149912 -717.320609 C 202.079596 -717.321605 200.39829 -718.999663 200.395367 -721.073872 C 200.396363 -723.144188 202.121295 -724.825649 204.148643 -724.824511 C 206.218958 -724.823515 207.900278 -723.141551 207.899282 -721.071235 Z M 207.899282 -721.071235 " transform="matrix(-0.00329254,1,-1,-0.00329254,0,0)"/>
<path style="fill-rule:evenodd;fill:rgb(0%,0%,0%);fill-opacity:1;stroke-width:1.000458;stroke-linecap:butt;stroke-linejoin:miter;stroke:rgb(0%,0%,0%);stroke-opacity:1;stroke-miterlimit:4;" d="M 487.141464 -721.072683 C 487.144375 -719.00238 485.46241 -717.321061 483.392095 -717.322057 C 481.321792 -717.319146 479.640473 -719.00111 479.637562 -721.071413 C 479.638558 -723.141729 481.363491 -724.82319 483.390838 -724.822052 C 485.461141 -724.824963 487.14246 -723.142999 487.141464 -721.072683 Z M 487.141464 -721.072683 " transform="matrix(-0.00329254,1,-1,-0.00329254,0,0)"/>
<path style=" stroke:none;fill-rule:nonzero;fill:rgb(0%,0%,0%);fill-opacity:1;" d="M 587.710938 224.1875 C 587.710938 224.148438 587.710938 224.085938 587.628906 223.988281 C 586.15625 222.492188 582.21875 218.394531 582.21875 208.40625 C 582.21875 198.414062 586.074219 194.359375 587.648438 192.765625 C 587.648438 192.722656 587.710938 192.664062 587.710938 192.5625 C 587.710938 192.460938 587.628906 192.402344 587.488281 192.402344 C 587.144531 192.402344 584.417969 194.761719 582.84375 198.292969 C 581.25 201.847656 580.808594 205.296875 580.808594 208.386719 C 580.808594 210.6875 581.027344 214.582031 582.945312 218.71875 C 584.480469 222.050781 587.105469 224.371094 587.488281 224.371094 C 587.648438 224.371094 587.710938 224.308594 587.710938 224.1875 Z M 587.710938 224.1875 "/>
<path style=" stroke:none;fill-rule:nonzero;fill:rgb(0%,0%,0%);fill-opacity:1;" d="M 604.4375 203.320312 C 603.40625 203.5 603.023438 204.269531 603.023438 204.894531 C 603.023438 205.660156 603.628906 205.902344 604.074219 205.902344 C 605.042969 205.902344 605.707031 205.074219 605.707031 204.207031 C 605.707031 202.875 604.175781 202.269531 602.820312 202.269531 C 600.882812 202.269531 599.792969 204.1875 599.511719 204.792969 C 598.765625 202.390625 596.789062 202.269531 596.203125 202.269531 C 592.933594 202.269531 591.214844 206.449219 591.214844 207.152344 C 591.214844 207.296875 591.335938 207.457031 591.558594 207.457031 C 591.820312 207.457031 591.882812 207.253906 591.941406 207.132812 C 593.03125 203.582031 595.171875 202.894531 596.101562 202.894531 C 597.554688 202.894531 597.835938 204.246094 597.835938 205.015625 C 597.835938 205.722656 597.65625 206.449219 597.25 207.980469 L 596.183594 212.382812 C 595.695312 214.296875 594.769531 216.054688 593.074219 216.054688 C 592.910156 216.054688 592.105469 216.054688 591.4375 215.652344 C 592.589844 215.410156 592.851562 214.460938 592.851562 214.078125 C 592.851562 213.429688 592.367188 213.046875 591.761719 213.046875 C 590.996094 213.046875 590.148438 213.714844 590.148438 214.742188 C 590.148438 216.09375 591.660156 216.699219 593.03125 216.699219 C 594.566406 216.699219 595.65625 215.488281 596.34375 214.175781 C 596.847656 216.054688 598.441406 216.699219 599.632812 216.699219 C 602.902344 216.699219 604.617188 212.503906 604.617188 211.796875 C 604.617188 211.632812 604.496094 211.511719 604.296875 211.511719 C 604.011719 211.511719 603.992188 211.675781 603.890625 211.9375 C 603.023438 214.742188 601.167969 216.054688 599.734375 216.054688 C 598.605469 216.054688 598 215.226562 598 213.914062 C 598 213.207031 598.121094 212.703125 598.644531 210.585938 L 599.753906 206.226562 C 600.238281 204.308594 601.328125 202.894531 602.800781 202.894531 C 602.863281 202.894531 603.75 202.894531 604.4375 203.320312 Z M 604.4375 203.320312 "/>
<g clip-path="url(#clip4)" clip-rule="nonzero">
<path style=" stroke:none;fill-rule:nonzero;fill:rgb(0%,0%,0%);fill-opacity:1;" d="M 615.589844 205.542969 C 615.589844 204.855469 615.550781 204.835938 615.105469 204.835938 C 613.855469 206.328125 611.976562 206.8125 610.183594 206.875 C 610.082031 206.875 609.917969 206.875 609.898438 206.933594 C 609.859375 207.015625 609.859375 207.078125 609.859375 207.742188 C 610.847656 207.742188 612.523438 207.539062 613.792969 206.773438 L 613.792969 223.644531 C 613.792969 224.777344 613.734375 225.160156 610.96875 225.160156 L 610.019531 225.160156 L 610.019531 225.988281 C 611.554688 225.949219 613.148438 225.925781 614.683594 225.925781 C 616.238281 225.925781 617.832031 225.949219 619.363281 225.988281 L 619.363281 225.160156 L 618.394531 225.160156 C 615.652344 225.160156 615.589844 224.796875 615.589844 223.648438 Z M 615.589844 205.542969 "/>
</g>
<path style=" stroke:none;fill-rule:nonzero;fill:rgb(0%,0%,0%);fill-opacity:1;" d="M 628.636719 216.5 C 628.636719 214.640625 628.03125 213.269531 626.71875 213.269531 C 625.691406 213.269531 625.1875 214.097656 625.1875 214.804688 C 625.1875 215.507812 625.671875 216.378906 626.761719 216.378906 C 627.164062 216.378906 627.527344 216.257812 627.808594 215.953125 C 627.871094 215.894531 627.910156 215.894531 627.929688 215.894531 C 628.011719 215.894531 628.011719 216.335938 628.011719 216.5 C 628.011719 217.566406 627.808594 219.648438 625.953125 221.726562 C 625.609375 222.109375 625.609375 222.171875 625.609375 222.230469 C 625.609375 222.390625 625.769531 222.554688 625.914062 222.554688 C 626.175781 222.554688 628.636719 220.191406 628.636719 216.5 Z M 628.636719 216.5 "/>
<path style=" stroke:none;fill-rule:nonzero;fill:rgb(0%,0%,0%);fill-opacity:1;" d="M 651.632812 203.320312 C 650.605469 203.5 650.222656 204.269531 650.222656 204.894531 C 650.222656 205.660156 650.828125 205.902344 651.269531 205.902344 C 652.238281 205.902344 652.90625 205.074219 652.90625 204.207031 C 652.90625 202.875 651.371094 202.269531 650.019531 202.269531 C 648.082031 202.269531 646.992188 204.1875 646.710938 204.792969 C 645.960938 202.390625 643.984375 202.269531 643.398438 202.269531 C 640.128906 202.269531 638.414062 206.449219 638.414062 207.152344 C 638.414062 207.296875 638.535156 207.457031 638.757812 207.457031 C 639.019531 207.457031 639.082031 207.253906 639.140625 207.132812 C 640.230469 203.582031 642.371094 202.894531 643.296875 202.894531 C 644.75 202.894531 645.035156 204.246094 645.035156 205.015625 C 645.035156 205.722656 644.851562 206.449219 644.449219 207.980469 L 643.378906 212.382812 C 642.894531 214.296875 641.964844 216.054688 640.269531 216.054688 C 640.109375 216.054688 639.300781 216.054688 638.636719 215.652344 C 639.785156 215.410156 640.050781 214.460938 640.050781 214.078125 C 640.050781 213.429688 639.566406 213.046875 638.960938 213.046875 C 638.191406 213.046875 637.34375 213.714844 637.34375 214.742188 C 637.34375 216.09375 638.859375 216.699219 640.230469 216.699219 C 641.765625 216.699219 642.855469 215.488281 643.539062 214.175781 C 644.046875 216.054688 645.640625 216.699219 646.832031 216.699219 C 650.101562 216.699219 651.816406 212.503906 651.816406 211.796875 C 651.816406 211.632812 651.695312 211.511719 651.492188 211.511719 C 651.210938 211.511719 651.191406 211.675781 651.089844 211.9375 C 650.222656 214.742188 648.363281 216.054688 646.929688 216.054688 C 645.800781 216.054688 645.195312 215.226562 645.195312 213.914062 C 645.195312 213.207031 645.316406 212.703125 645.839844 210.585938 L 646.953125 206.226562 C 647.4375 204.308594 648.527344 202.894531 650 202.894531 C 650.058594 202.894531 650.949219 202.894531 651.632812 203.320312 Z M 651.632812 203.320312 "/>
<g clip-path="url(#clip5)" clip-rule="nonzero">
<path style=" stroke:none;fill-rule:nonzero;fill:rgb(0%,0%,0%);fill-opacity:1;" d="M 667.601562 221.023438 L 667.035156 221.023438 C 666.710938 223.304688 666.449219 223.6875 666.328125 223.867188 C 666.167969 224.132812 663.867188 224.132812 663.421875 224.132812 L 657.265625 224.132812 C 658.417969 222.878906 660.65625 220.617188 663.382812 217.996094 C 665.339844 216.136719 667.601562 213.957031 667.601562 210.789062 C 667.601562 207.015625 664.59375 204.835938 661.242188 204.835938 C 657.710938 204.835938 655.570312 207.925781 655.570312 210.808594 C 655.570312 212.0625 656.5 212.222656 656.882812 212.222656 C 657.207031 212.222656 658.15625 212.042969 658.15625 210.910156 C 658.15625 209.921875 657.328125 209.640625 656.882812 209.640625 C 656.703125 209.640625 656.5 209.660156 656.378906 209.71875 C 656.984375 207.015625 658.839844 205.664062 660.800781 205.664062 C 663.585938 205.664062 665.402344 207.863281 665.402344 210.789062 C 665.402344 213.574219 663.765625 215.976562 661.949219 218.054688 L 655.570312 225.261719 L 655.570312 225.988281 L 666.832031 225.988281 Z M 667.601562 221.023438 "/>
</g>
<path style=" stroke:none;fill-rule:nonzero;fill:rgb(0%,0%,0%);fill-opacity:1;" d="M 675.824219 216.5 C 675.824219 214.640625 675.21875 213.269531 673.90625 213.269531 C 672.878906 213.269531 672.371094 214.097656 672.371094 214.804688 C 672.371094 215.507812 672.855469 216.378906 673.945312 216.378906 C 674.351562 216.378906 674.714844 216.257812 674.996094 215.953125 C 675.058594 215.894531 675.097656 215.894531 675.117188 215.894531 C 675.199219 215.894531 675.199219 216.335938 675.199219 216.5 C 675.199219 217.566406 674.996094 219.648438 673.140625 221.726562 C 672.796875 222.109375 672.796875 222.171875 672.796875 222.230469 C 672.796875 222.390625 672.957031 222.554688 673.097656 222.554688 C 673.363281 222.554688 675.824219 220.191406 675.824219 216.5 Z M 675.824219 216.5 "/>
<path style=" stroke:none;fill-rule:nonzero;fill:rgb(0%,0%,0%);fill-opacity:1;" d="M 690.082031 203.5 L 693.027344 203.5 C 693.632812 203.5 693.957031 203.5 693.957031 202.9375 C 693.957031 202.574219 693.753906 202.574219 693.109375 202.574219 L 690.304688 202.574219 L 691.492188 197.910156 C 691.613281 197.464844 691.613281 197.40625 691.613281 197.164062 C 691.613281 196.660156 691.191406 196.375 690.789062 196.375 C 690.523438 196.375 689.796875 196.476562 689.535156 197.488281 L 688.285156 202.574219 L 685.277344 202.574219 C 684.632812 202.574219 684.347656 202.574219 684.347656 203.199219 C 684.347656 203.5 684.570312 203.5 685.175781 203.5 L 688.023438 203.5 L 685.921875 211.957031 C 685.660156 213.085938 685.558594 213.410156 685.558594 213.8125 C 685.558594 215.328125 686.609375 216.699219 688.40625 216.699219 C 691.636719 216.699219 693.371094 212.019531 693.371094 211.796875 C 693.371094 211.613281 693.25 211.511719 693.046875 211.511719 C 692.988281 211.511719 692.867188 211.511719 692.804688 211.632812 C 692.765625 211.675781 692.726562 211.695312 692.503906 212.21875 C 691.835938 213.8125 690.363281 216.054688 688.507812 216.054688 C 687.539062 216.054688 687.476562 215.246094 687.476562 214.5625 C 687.476562 214.519531 687.476562 213.914062 687.578125 213.53125 Z M 690.082031 203.5 "/>
<path style=" stroke:none;fill-rule:nonzero;fill:rgb(0%,0%,0%);fill-opacity:1;" d="M 703.367188 208.40625 C 703.367188 206.105469 703.144531 202.1875 701.230469 198.070312 C 699.695312 194.742188 697.070312 192.402344 696.6875 192.402344 C 696.585938 192.402344 696.464844 192.441406 696.464844 192.601562 C 696.464844 192.664062 696.484375 192.683594 696.527344 192.765625 C 698.058594 194.359375 701.957031 198.414062 701.957031 208.386719 C 701.957031 218.355469 698.082031 222.433594 696.527344 224.027344 C 696.484375 224.085938 696.464844 224.128906 696.464844 224.1875 C 696.464844 224.351562 696.585938 224.371094 696.6875 224.371094 C 697.03125 224.371094 699.753906 222.007812 701.328125 218.496094 C 702.925781 214.945312 703.367188 211.472656 703.367188 208.40625 Z M 703.367188 208.40625 "/>
<path style="fill:none;stroke-width:0.751178;stroke-linecap:butt;stroke-linejoin:miter;stroke:rgb(0%,0%,0%);stroke-opacity:1;stroke-miterlimit:4;" d="M 540.863281 699.019531 L 540.863281 278.066406 M 540.863281 194.585938 L 540.863281 2.667969 "/>
<path style="fill-rule:evenodd;fill:rgb(0%,0%,0%);fill-opacity:1;stroke-width:0.500786;stroke-linecap:butt;stroke-linejoin:miter;stroke:rgb(0%,0%,0%);stroke-opacity:1;stroke-miterlimit:4;" d="M -0.5 540.863281 L -3.75 542.742188 L -3.75 538.984375 Z M -0.5 540.863281 " transform="matrix(0,-1,1,0,0,0)"/>
<path style="fill-rule:nonzero;fill:rgb(70.587158%,70.587158%,70.587158%);fill-opacity:0.662083;stroke-width:1.417323;stroke-linecap:butt;stroke-linejoin:miter;stroke:rgb(0%,0%,0%);stroke-opacity:1;stroke-miterlimit:4;" d="M 540.6875 394.632812 L 881.351562 570.625 "/>
<path style="fill:none;stroke-width:1.417323;stroke-linecap:butt;stroke-linejoin:miter;stroke:rgb(0%,0%,0%);stroke-opacity:1;stroke-miterlimit:4;" d="M 656.898438 410.195312 C 656.898438 410.195312 656.789062 431.296875 632.972656 437.269531 "/>
<path style="fill-rule:evenodd;fill:rgb(0%,0%,0%);fill-opacity:1;stroke-width:0.916487;stroke-linecap:butt;stroke-linejoin:miter;stroke:rgb(0%,0%,0%);stroke-opacity:1;stroke-miterlimit:4;" d="M -488.338002 -560.763748 L -494.286248 -557.32616 L -494.284445 -564.200708 Z M -488.338002 -560.763748 " transform="matrix(-1,0.250847,-0.250847,-1,0,0)"/>
<path style=" stroke:none;fill-rule:nonzero;fill:rgb(0%,0%,0%);fill-opacity:1;" d="M 689.035156 425.84375 C 689.035156 422.128906 687.863281 418.523438 684.878906 418.523438 C 679.785156 418.523438 674.347656 429.195312 674.347656 437.203125 C 674.347656 438.878906 674.714844 444.523438 678.546875 444.523438 C 683.503906 444.523438 689.035156 434.105469 689.035156 425.84375 Z M 677.996094 430.984375 C 678.546875 428.828125 679.304688 425.777344 680.773438 423.183594 C 681.964844 421.003906 683.226562 419.257812 684.835938 419.257812 C 686.050781 419.257812 686.832031 420.292969 686.832031 423.78125 C 686.832031 425.085938 686.738281 426.898438 685.683594 430.984375 Z M 685.429688 432.0625 C 684.511719 435.640625 683.757812 437.9375 682.449219 440.230469 C 681.390625 442.089844 680.109375 443.789062 678.570312 443.789062 C 677.445312 443.789062 676.550781 442.917969 676.550781 439.3125 C 676.550781 436.949219 677.125 434.472656 677.699219 432.0625 Z M 685.429688 432.0625 "/>
<g clip-path="url(#clip6)" clip-rule="nonzero">
<path style=" stroke:none;fill-rule:nonzero;fill:rgb(0%,0%,0%);fill-opacity:1;" d="M 699.195312 431.835938 C 699.195312 431.058594 699.148438 431.035156 698.644531 431.035156 C 697.222656 432.730469 695.085938 433.28125 693.046875 433.351562 C 692.929688 433.351562 692.746094 433.351562 692.722656 433.421875 C 692.679688 433.511719 692.679688 433.582031 692.679688 434.339844 C 693.800781 434.339844 695.707031 434.109375 697.152344 433.238281 L 697.152344 452.417969 C 697.152344 453.703125 697.082031 454.140625 693.941406 454.140625 L 692.863281 454.140625 L 692.863281 455.082031 C 694.605469 455.035156 696.417969 455.011719 698.160156 455.011719 C 699.929688 455.011719 701.742188 455.035156 703.484375 455.082031 L 703.484375 454.140625 L 702.382812 454.140625 C 699.261719 454.140625 699.195312 453.726562 699.195312 452.417969 Z M 699.195312 431.835938 "/>
</g>
</g>
</svg>
