<?xml version="1.0" encoding="UTF-8"?>
<svg xmlns="http://www.w3.org/2000/svg" xmlns:xlink="http://www.w3.org/1999/xlink" width="1208.507001pt" height="735.396649pt" viewBox="0 0 1208.507001 735.396649" version="1.1">
<defs>
<clipPath id="clip1">
  <path d="M 1182 492 L 1208.507812 492 L 1208.507812 529 L 1182 529 Z M 1182 492 "/>
</clipPath>
<clipPath id="clip2">
  <path d="M 247 591 L 835 591 L 835 668.347656 L 247 668.347656 Z M 247 591 "/>
</clipPath>
<clipPath id="clip3">
  <path d="M 247 662.378906 L 836 662.378906 L 836 735.398438 L 247 735.398438 Z M 247 662.378906 "/>
</clipPath>
<clipPath id="clip4">
  <path d="M 797 263 L 814 263 L 814 290.859375 L 797 290.859375 Z M 797 263 "/>
</clipPath>
<clipPath id="clip5">
  <path d="M 1185 528 L 1199 528 L 1199 556.25 L 1185 556.25 Z M 1185 528 "/>
</clipPath>
<clipPath id="clip6">
  <path d="M 566.054688 0 L 579.554688 0 L 579.554688 25.726562 L 566.054688 25.726562 Z M 566.054688 0 "/>
</clipPath>
</defs>
<g id="surface1">
<path style="fill:none;stroke-width:0.751178;stroke-linecap:butt;stroke-linejoin:miter;stroke:rgb(0%,0%,0%);stroke-opacity:1;stroke-miterlimit:4;" d="M 403.34375 291.050781 L 1028.570312 344.390625 L 781.289062 670.003906 L 1.074219 517.851562 Z M 403.34375 291.050781 "/>
<path style="fill:none;stroke-width:0.751178;stroke-linecap:butt;stroke-linejoin:miter;stroke:rgb(0%,0%,0%);stroke-opacity:1;stroke-miterlimit:4;" d="M 183.109375 701.191406 L 749.304688 265.011719 "/>
<path style="fill-rule:evenodd;fill:rgb(0%,0%,0%);fill-opacity:1;stroke-width:1.497049;stroke-linecap:butt;stroke-linejoin:miter;stroke:rgb(0%,0%,0%);stroke-opacity:1;stroke-miterlimit:4;" d="M 348.593519 528.568381 L 338.882788 534.181305 L 338.880422 522.952919 Z M 348.593519 528.568381 " transform="matrix(1,-0.770367,0.770367,1,0,0)"/>
<path style="fill:none;stroke-width:0.751178;stroke-linecap:butt;stroke-linejoin:miter;stroke:rgb(0%,0%,0%);stroke-opacity:1;stroke-miterlimit:4;" d="M 88.222656 368.953125 L 1198.523438 510.824219 "/>
<path style=" stroke:none;fill-rule:evenodd;fill:rgb(0%,0%,0%);fill-opacity:1;" d="M 1206.632812 511.863281 L 1193.574219 517.335938 L 1195.371094 503.277344 Z M 1206.632812 511.863281 "/>
<g clip-path="url(#clip1)" clip-rule="nonzero">
<path style="fill:none;stroke-width:1.874522;stroke-linecap:butt;stroke-linejoin:miter;stroke:rgb(0%,0%,0%);stroke-opacity:1;stroke-miterlimit:4;" d="M 1251.602871 351.933466 L 1239.44213 358.960022 L 1239.442591 344.90137 Z M 1251.602871 351.933466 " transform="matrix(1,0.12778,-0.12778,1,0,0)"/>
</g>
<path style="fill-rule:nonzero;fill:rgb(47.450256%,49.411011%,49.411011%);fill-opacity:1;stroke-width:2.834646;stroke-linecap:butt;stroke-linejoin:miter;stroke:rgb(0%,0%,100%);stroke-opacity:1;stroke-miterlimit:4;" d="M 251.269531 159.574219 C 251.269531 159.574219 316.515625 311.914062 539.773438 308.796875 C 763.03125 305.679688 830.398438 159.363281 830.398438 159.363281 "/>
<path style="fill-rule:nonzero;fill:rgb(72.155762%,70.587158%,70.979309%);fill-opacity:1;stroke-width:2.834646;stroke-linecap:butt;stroke-linejoin:miter;stroke:rgb(0%,0%,100%);stroke-opacity:1;stroke-miterlimit:4;" d="M 830.632812 154.304688 C 830.632812 194.621094 700.898438 227.304688 540.863281 227.304688 C 380.828125 227.304688 251.09375 194.621094 251.09375 154.304688 C 251.09375 113.988281 380.828125 81.304688 540.863281 81.304688 C 700.898438 81.304688 830.632812 113.988281 830.632812 154.304688 Z M 830.632812 154.304688 "/>
<g clip-path="url(#clip2)" clip-rule="nonzero">
<path style="fill:none;stroke-width:0.708661;stroke-linecap:butt;stroke-linejoin:miter;stroke:rgb(0%,0%,100%);stroke-opacity:1;stroke-dasharray:2.834646,2.834646;stroke-miterlimit:4;" d="M 830.734375 668.683594 C 830.734375 708.996094 701.003906 741.679688 540.96875 741.679688 C 380.933594 741.679688 251.199219 708.996094 251.199219 668.683594 C 251.199219 628.367188 380.933594 595.683594 540.96875 595.683594 C 701.003906 595.683594 830.734375 628.367188 830.734375 668.683594 Z M 830.734375 668.683594 "/>
</g>
<g clip-path="url(#clip3)" clip-rule="nonzero">
<path style="fill:none;stroke-width:0.708661;stroke-linecap:butt;stroke-linejoin:miter;stroke:rgb(0%,0%,100%);stroke-opacity:1;stroke-miterlimit:4;" d="M 831.382812 -662.042969 C 831.382812 -621.726562 701.648438 -589.042969 541.613281 -589.042969 C 381.578125 -589.042969 251.84375 -621.726562 251.84375 -662.042969 C 251.84375 -702.359375 381.578125 -735.042969 541.613281 -735.042969 C 701.648438 -735.042969 831.382812 -702.359375 831.382812 -662.042969 Z M 831.382812 -662.042969 " transform="matrix(1,0,0,-1,0,0)"/>
</g>
<path style="fill:none;stroke-width:0.708661;stroke-linecap:butt;stroke-linejoin:miter;stroke:rgb(0%,0%,100%);stroke-opacity:1;stroke-miterlimit:4;" d="M 251.367188 662.316406 C 251.367188 662.316406 316.613281 509.980469 539.871094 513.097656 C 763.128906 516.214844 830.496094 662.527344 830.496094 662.527344 "/>
<path style=" stroke:none;fill-rule:nonzero;fill:rgb(0%,0%,0%);fill-opacity:1;" d="M 792.167969 261.246094 C 790.824219 261.484375 790.324219 262.484375 790.324219 263.304688 C 790.324219 264.304688 791.113281 264.621094 791.695312 264.621094 C 792.960938 264.621094 793.828125 263.539062 793.828125 262.40625 C 793.828125 260.667969 791.824219 259.875 790.058594 259.875 C 787.527344 259.875 786.105469 262.378906 785.734375 263.171875 C 784.761719 260.035156 782.175781 259.875 781.410156 259.875 C 777.140625 259.875 774.898438 265.332031 774.898438 266.257812 C 774.898438 266.441406 775.058594 266.652344 775.347656 266.652344 C 775.691406 266.652344 775.769531 266.386719 775.847656 266.230469 C 777.273438 261.589844 780.066406 260.691406 781.28125 260.691406 C 783.179688 260.691406 783.546875 262.460938 783.546875 263.460938 C 783.546875 264.382812 783.308594 265.332031 782.78125 267.335938 L 781.386719 273.085938 C 780.753906 275.589844 779.539062 277.882812 777.324219 277.882812 C 777.113281 277.882812 776.058594 277.882812 775.191406 277.355469 C 776.691406 277.039062 777.035156 275.800781 777.035156 275.300781 C 777.035156 274.457031 776.402344 273.953125 775.613281 273.953125 C 774.609375 273.953125 773.503906 274.824219 773.503906 276.167969 C 773.503906 277.9375 775.480469 278.726562 777.273438 278.726562 C 779.277344 278.726562 780.699219 277.144531 781.597656 275.429688 C 782.253906 277.882812 784.339844 278.726562 785.894531 278.726562 C 790.164062 278.726562 792.40625 273.242188 792.40625 272.320312 C 792.40625 272.109375 792.246094 271.949219 791.984375 271.949219 C 791.613281 271.949219 791.589844 272.160156 791.457031 272.503906 C 790.324219 276.167969 787.898438 277.882812 786.027344 277.882812 C 784.550781 277.882812 783.757812 276.800781 783.757812 275.089844 C 783.757812 274.164062 783.917969 273.507812 784.601562 270.738281 L 786.050781 265.042969 C 786.683594 262.539062 788.109375 260.691406 790.03125 260.691406 C 790.113281 260.691406 791.273438 260.691406 792.167969 261.246094 Z M 792.167969 261.246094 "/>
<g clip-path="url(#clip4)" clip-rule="nonzero">
<path style=" stroke:none;fill-rule:nonzero;fill:rgb(0%,0%,0%);fill-opacity:1;" d="M 813.039062 284.371094 L 812.300781 284.371094 C 811.878906 287.351562 811.539062 287.851562 811.378906 288.089844 C 811.167969 288.433594 808.164062 288.433594 807.582031 288.433594 L 799.542969 288.433594 C 801.046875 286.796875 803.972656 283.84375 807.53125 280.417969 C 810.089844 277.992188 813.039062 275.144531 813.039062 271.007812 C 813.039062 266.074219 809.113281 263.226562 804.734375 263.226562 C 800.121094 263.226562 797.328125 267.261719 797.328125 271.03125 C 797.328125 272.667969 798.539062 272.878906 799.042969 272.878906 C 799.464844 272.878906 800.703125 272.640625 800.703125 271.164062 C 800.703125 269.871094 799.621094 269.503906 799.042969 269.503906 C 798.804688 269.503906 798.539062 269.53125 798.382812 269.609375 C 799.171875 266.074219 801.597656 264.308594 804.15625 264.308594 C 807.792969 264.308594 810.167969 267.183594 810.167969 271.007812 C 810.167969 274.644531 808.03125 277.78125 805.660156 280.496094 L 797.328125 289.910156 L 797.328125 290.859375 L 812.039062 290.859375 Z M 813.039062 284.371094 "/>
</g>
<path style=" stroke:none;fill-rule:nonzero;fill:rgb(0%,0%,0%);fill-opacity:1;" d="M 1178.675781 526.636719 C 1177.332031 526.875 1176.832031 527.875 1176.832031 528.691406 C 1176.832031 529.695312 1177.621094 530.011719 1178.203125 530.011719 C 1179.46875 530.011719 1180.339844 528.929688 1180.339844 527.796875 C 1180.339844 526.058594 1178.335938 525.265625 1176.566406 525.265625 C 1174.035156 525.265625 1172.613281 527.769531 1172.246094 528.5625 C 1171.269531 525.425781 1168.683594 525.265625 1167.921875 525.265625 C 1163.648438 525.265625 1161.410156 530.722656 1161.410156 531.644531 C 1161.410156 531.832031 1161.566406 532.042969 1161.855469 532.042969 C 1162.199219 532.042969 1162.277344 531.777344 1162.359375 531.621094 C 1163.78125 526.980469 1166.574219 526.082031 1167.789062 526.082031 C 1169.6875 526.082031 1170.054688 527.851562 1170.054688 528.851562 C 1170.054688 529.773438 1169.820312 530.722656 1169.292969 532.726562 L 1167.894531 538.472656 C 1167.261719 540.980469 1166.046875 543.273438 1163.835938 543.273438 C 1163.625 543.273438 1162.570312 543.273438 1161.699219 542.746094 C 1163.203125 542.429688 1163.542969 541.191406 1163.542969 540.6875 C 1163.542969 539.84375 1162.910156 539.34375 1162.121094 539.34375 C 1161.117188 539.34375 1160.011719 540.214844 1160.011719 541.558594 C 1160.011719 543.324219 1161.988281 544.117188 1163.78125 544.117188 C 1165.785156 544.117188 1167.207031 542.535156 1168.105469 540.820312 C 1168.765625 543.273438 1170.847656 544.117188 1172.402344 544.117188 C 1176.671875 544.117188 1178.914062 538.632812 1178.914062 537.710938 C 1178.914062 537.5 1178.757812 537.339844 1178.492188 537.339844 C 1178.125 537.339844 1178.097656 537.550781 1177.964844 537.894531 C 1176.832031 541.558594 1174.40625 543.273438 1172.535156 543.273438 C 1171.058594 543.273438 1170.265625 542.191406 1170.265625 540.476562 C 1170.265625 539.554688 1170.425781 538.894531 1171.109375 536.128906 L 1172.5625 530.433594 C 1173.195312 527.929688 1174.617188 526.082031 1176.542969 526.082031 C 1176.621094 526.082031 1177.78125 526.082031 1178.675781 526.636719 Z M 1178.675781 526.636719 "/>
<g clip-path="url(#clip5)" clip-rule="nonzero">
<path style=" stroke:none;fill-rule:nonzero;fill:rgb(0%,0%,0%);fill-opacity:1;" d="M 1193.25 529.542969 C 1193.25 528.644531 1193.195312 528.617188 1192.617188 528.617188 C 1190.980469 530.570312 1188.53125 531.203125 1186.183594 531.28125 C 1186.050781 531.28125 1185.839844 531.28125 1185.8125 531.359375 C 1185.761719 531.464844 1185.761719 531.542969 1185.761719 532.414062 C 1187.054688 532.414062 1189.242188 532.152344 1190.902344 531.148438 L 1190.902344 553.191406 C 1190.902344 554.667969 1190.824219 555.167969 1187.210938 555.167969 L 1185.972656 555.167969 L 1185.972656 556.25 C 1187.976562 556.195312 1190.058594 556.167969 1192.0625 556.167969 C 1194.09375 556.167969 1196.175781 556.195312 1198.179688 556.25 L 1198.179688 555.167969 L 1196.914062 555.167969 C 1193.328125 555.167969 1193.25 554.691406 1193.25 553.191406 Z M 1193.25 529.542969 "/>
</g>
<g clip-path="url(#clip6)" clip-rule="nonzero">
<path style=" stroke:none;fill-rule:nonzero;fill:rgb(0%,0%,0%);fill-opacity:1;" d="M 574.464844 8.90625 L 578.316406 8.90625 C 579.105469 8.90625 579.527344 8.90625 579.527344 8.167969 C 579.527344 7.691406 579.265625 7.691406 578.421875 7.691406 L 574.757812 7.691406 L 576.3125 1.601562 C 576.46875 1.019531 576.46875 0.941406 576.46875 0.625 C 576.46875 -0.03125 575.917969 -0.402344 575.390625 -0.402344 C 575.046875 -0.402344 574.097656 -0.269531 573.753906 1.046875 L 572.121094 7.691406 L 568.191406 7.691406 C 567.347656 7.691406 566.980469 7.691406 566.980469 8.507812 C 566.980469 8.90625 567.269531 8.90625 568.058594 8.90625 L 571.777344 8.90625 L 569.035156 19.949219 C 568.691406 21.425781 568.5625 21.847656 568.5625 22.375 C 568.5625 24.355469 569.933594 26.148438 572.277344 26.148438 C 576.496094 26.148438 578.765625 20.03125 578.765625 19.738281 C 578.765625 19.503906 578.605469 19.371094 578.34375 19.371094 C 578.261719 19.371094 578.105469 19.371094 578.027344 19.53125 C 577.972656 19.582031 577.921875 19.609375 577.628906 20.292969 C 576.761719 22.375 574.835938 25.304688 572.410156 25.304688 C 571.144531 25.304688 571.066406 24.25 571.066406 23.351562 C 571.066406 23.300781 571.066406 22.507812 571.195312 22.007812 Z M 574.464844 8.90625 "/>
</g>
<path style="fill:none;stroke-width:0.751178;stroke-linecap:butt;stroke-linejoin:miter;stroke:rgb(0%,0%,0%);stroke-opacity:1;stroke-miterlimit:4;" d="M 540.863281 730.519531 L 540.863281 308.605469 M 540.863281 226.585938 L 540.863281 35.296875 "/>
<path style="fill-rule:evenodd;fill:rgb(0%,0%,0%);fill-opacity:1;stroke-width:1.889764;stroke-linecap:butt;stroke-linejoin:miter;stroke:rgb(0%,0%,0%);stroke-opacity:1;stroke-miterlimit:4;" d="M -27.121094 540.863281 L -39.378906 547.949219 L -39.378906 533.777344 Z M -27.121094 540.863281 " transform="matrix(0,-1,1,0,0,0)"/>
</g>
</svg>
