<?xml version="1.0" encoding="UTF-8"?>
<svg xmlns="http://www.w3.org/2000/svg" xmlns:xlink="http://www.w3.org/1999/xlink" width="1208.507001pt" height="711.296011pt" viewBox="0 0 1208.507001 711.296011" version="1.1">
<defs>
<clipPath id="clip1">
  <path d="M 1182 468 L 1208.507812 468 L 1208.507812 504 L 1182 504 Z M 1182 468 "/>
</clipPath>
<clipPath id="clip2">
  <path d="M 247 567 L 835 567 L 835 644.246094 L 247 644.246094 Z M 247 567 "/>
</clipPath>
<clipPath id="clip3">
  <path d="M 247 638.277344 L 836 638.277344 L 836 711.296875 L 247 711.296875 Z M 247 638.277344 "/>
</clipPath>
<clipPath id="clip4">
  <path d="M 609 212 L 620 212 L 620 233.386719 L 609 233.386719 Z M 609 212 "/>
</clipPath>
<clipPath id="clip5">
  <path d="M 655.421875 212 L 668 212 L 668 233.386719 L 655.421875 233.386719 Z M 655.421875 212 "/>
</clipPath>
<clipPath id="clip6">
  <path d="M 652 448 L 662 448 L 662 469.183594 L 652 469.183594 Z M 652 448 "/>
</clipPath>
<clipPath id="clip7">
  <path d="M 695.136719 448 L 708 448 L 708 469.183594 L 695.136719 469.183594 Z M 695.136719 448 "/>
</clipPath>
<clipPath id="clip8">
  <path d="M 448.050781 501.648438 L 456 501.648438 L 456 533.609375 L 448.050781 533.609375 Z M 448.050781 501.648438 "/>
</clipPath>
<clipPath id="clip9">
  <path d="M 541.054688 504 L 552 504 L 552 526 L 541.054688 526 Z M 541.054688 504 "/>
</clipPath>
<clipPath id="clip10">
  <path d="M 555 501.648438 L 563 501.648438 L 563 533.609375 L 555 533.609375 Z M 555 501.648438 "/>
</clipPath>
</defs>
<g id="surface1">
<path style="fill:none;stroke-width:0.751178;stroke-linecap:butt;stroke-linejoin:miter;stroke:rgb(0%,0%,0%);stroke-opacity:1;stroke-miterlimit:4;" d="M 403.34375 266.949219 L 1028.570312 320.289062 L 781.289062 645.902344 L 1.074219 493.753906 Z M 403.34375 266.949219 "/>
<path style="fill:none;stroke-width:0.751178;stroke-linecap:butt;stroke-linejoin:miter;stroke:rgb(0%,0%,0%);stroke-opacity:1;stroke-miterlimit:4;" d="M 183.109375 677.089844 L 749.304688 240.914062 "/>
<path style="fill-rule:evenodd;fill:rgb(0%,0%,0%);fill-opacity:1;stroke-width:1.497049;stroke-linecap:butt;stroke-linejoin:miter;stroke:rgb(0%,0%,0%);stroke-opacity:1;stroke-miterlimit:4;" d="M 360.245513 513.44313 L 350.534783 519.056054 L 350.532416 507.827668 Z M 360.245513 513.44313 " transform="matrix(1,-0.770367,0.770367,1,0,0)"/>
<path style="fill:none;stroke-width:0.751178;stroke-linecap:butt;stroke-linejoin:miter;stroke:rgb(0%,0%,0%);stroke-opacity:1;stroke-miterlimit:4;" d="M 88.222656 344.851562 L 1198.523438 486.726562 "/>
<path style=" stroke:none;fill-rule:evenodd;fill:rgb(0%,0%,0%);fill-opacity:1;" d="M 1206.632812 487.761719 L 1193.574219 493.238281 L 1195.371094 479.179688 Z M 1206.632812 487.761719 "/>
<g clip-path="url(#clip1)" clip-rule="nonzero">
<path style="fill:none;stroke-width:1.874522;stroke-linecap:butt;stroke-linejoin:miter;stroke:rgb(0%,0%,0%);stroke-opacity:1;stroke-miterlimit:4;" d="M 1248.57265 328.219106 L 1236.4124 335.249505 L 1236.412861 321.190852 Z M 1248.57265 328.219106 " transform="matrix(1,0.12778,-0.12778,1,0,0)"/>
</g>
<path style="fill-rule:nonzero;fill:rgb(47.450256%,47.450256%,47.450256%);fill-opacity:1;stroke-width:2.834646;stroke-linecap:butt;stroke-linejoin:miter;stroke:rgb(0%,0%,100%);stroke-opacity:1;stroke-miterlimit:4;" d="M 251.269531 135.472656 C 251.269531 135.472656 316.515625 287.8125 539.773438 284.695312 C 763.03125 281.578125 830.398438 135.265625 830.398438 135.265625 "/>
<path style="fill-rule:nonzero;fill:rgb(70.587158%,70.587158%,70.587158%);fill-opacity:1;stroke-width:2.834646;stroke-linecap:butt;stroke-linejoin:miter;stroke:rgb(0%,0%,100%);stroke-opacity:1;stroke-miterlimit:4;" d="M 830.632812 130.203125 C 830.632812 170.519531 700.898438 203.203125 540.863281 203.203125 C 380.828125 203.203125 251.09375 170.519531 251.09375 130.203125 C 251.09375 89.886719 380.828125 57.203125 540.863281 57.203125 C 700.898438 57.203125 830.632812 89.886719 830.632812 130.203125 Z M 830.632812 130.203125 "/>
<path style="fill:none;stroke-width:2.834646;stroke-linecap:butt;stroke-linejoin:miter;stroke:rgb(0%,0%,100%);stroke-opacity:1;stroke-miterlimit:4;" d="M 664.71875 413.386719 C 638 442.21875 546.195312 460.488281 467.660156 452.636719 C 395.050781 445.382812 368.101562 418.777344 400.550781 394.324219 C 430.894531 371.457031 505.648438 356.507812 573.226562 359.820312 C 645.625 363.371094 689.460938 386.683594 664.71875 413.386719 Z M 664.71875 413.386719 "/>
<g clip-path="url(#clip2)" clip-rule="nonzero">
<path style="fill:none;stroke-width:0.708661;stroke-linecap:butt;stroke-linejoin:miter;stroke:rgb(0%,0%,100%);stroke-opacity:1;stroke-dasharray:2.834646,2.834646;stroke-miterlimit:4;" d="M 830.734375 644.582031 C 830.734375 684.898438 701.003906 717.582031 540.96875 717.582031 C 380.933594 717.582031 251.199219 684.898438 251.199219 644.582031 C 251.199219 604.265625 380.933594 571.582031 540.96875 571.582031 C 701.003906 571.582031 830.734375 604.265625 830.734375 644.582031 Z M 830.734375 644.582031 "/>
</g>
<g clip-path="url(#clip3)" clip-rule="nonzero">
<path style="fill:none;stroke-width:0.708661;stroke-linecap:butt;stroke-linejoin:miter;stroke:rgb(0%,0%,100%);stroke-opacity:1;stroke-miterlimit:4;" d="M 831.382812 -637.941406 C 831.382812 -597.625 701.648438 -564.945312 541.613281 -564.945312 C 381.578125 -564.945312 251.84375 -597.625 251.84375 -637.941406 C 251.84375 -678.257812 381.578125 -710.941406 541.613281 -710.941406 C 701.648438 -710.941406 831.382812 -678.257812 831.382812 -637.941406 Z M 831.382812 -637.941406 " transform="matrix(1,0,0,-1,0,0)"/>
</g>
<path style="fill:none;stroke-width:0.708661;stroke-linecap:butt;stroke-linejoin:miter;stroke:rgb(0%,0%,100%);stroke-opacity:1;stroke-miterlimit:4;" d="M 251.367188 638.21875 C 251.367188 638.21875 316.613281 485.878906 539.871094 488.996094 C 763.128906 492.113281 830.496094 638.425781 830.496094 638.425781 "/>
<path style="fill:none;stroke-width:2.125984;stroke-linecap:butt;stroke-linejoin:miter;stroke:rgb(0%,0%,0%);stroke-opacity:1;stroke-dasharray:8.503937,8.503937;stroke-miterlimit:4;" d="M 600.570312 396.851562 L 540.828125 489.109375 "/>
<path style="fill-rule:evenodd;fill:rgb(0%,0%,0%);fill-opacity:1;stroke-width:0.839772;stroke-linecap:butt;stroke-linejoin:miter;stroke:rgb(0%,0%,0%);stroke-opacity:1;stroke-miterlimit:4;" d="M 101.010951 -604.198401 C 101.011387 -602.460402 99.600163 -601.050474 97.862164 -601.050038 C 96.124165 -601.049602 94.714237 -602.460826 94.712019 -604.201577 C 94.711583 -605.939576 96.161022 -607.350813 97.860806 -607.34994 C 99.600587 -607.347624 101.010515 -605.9364 101.010951 -604.198401 Z M 101.010951 -604.198401 " transform="matrix(-0.647547,1,-1,-0.647547,0,0)"/>
<path style="fill:none;stroke-width:2.125984;stroke-linecap:butt;stroke-linejoin:miter;stroke:rgb(0%,0%,0%);stroke-opacity:1;stroke-miterlimit:4;" d="M 720.398438 213.921875 L 585.800781 419.621094 "/>
<path style="fill-rule:evenodd;fill:rgb(0%,0%,0%);fill-opacity:1;stroke-width:0.837164;stroke-linecap:butt;stroke-linejoin:miter;stroke:rgb(0%,0%,0%);stroke-opacity:1;stroke-miterlimit:4;" d="M -177.138962 -602.433047 C -177.142035 -600.700568 -178.545725 -599.293783 -180.28094 -599.295066 C -182.014364 -599.293614 -183.420204 -600.701829 -183.419866 -602.432519 C -183.421319 -604.165944 -181.975013 -605.57327 -180.279678 -605.573235 C -178.548989 -605.572898 -177.140414 -604.166472 -177.138962 -602.433047 Z M -177.138962 -602.433047 " transform="matrix(-0.654349,1,-1,-0.654349,0,0)"/>
<path style="fill-rule:evenodd;fill:rgb(0%,0%,0%);fill-opacity:1;stroke-width:0.837164;stroke-linecap:butt;stroke-linejoin:miter;stroke:rgb(0%,0%,0%);stroke-opacity:1;stroke-miterlimit:4;" d="M 28.559605 -602.434043 C 28.561057 -600.700618 27.152842 -599.294779 25.422152 -599.295116 C 23.688728 -599.293664 22.282888 -600.701879 22.283226 -602.432569 C 22.281774 -604.165994 23.725344 -605.57153 25.420679 -605.571496 C 27.154103 -605.572948 28.559943 -604.164732 28.559605 -602.434043 Z M 28.559605 -602.434043 " transform="matrix(-0.654349,1,-1,-0.654349,0,0)"/>
<path style=" stroke:none;fill-rule:nonzero;fill:rgb(0%,0%,0%);fill-opacity:1;" d="M 587.710938 231.585938 C 587.710938 231.546875 587.710938 231.484375 587.628906 231.386719 C 586.15625 229.890625 582.21875 225.792969 582.21875 215.804688 C 582.21875 205.8125 586.074219 201.757812 587.648438 200.164062 C 587.648438 200.121094 587.710938 200.0625 587.710938 199.960938 C 587.710938 199.859375 587.628906 199.800781 587.488281 199.800781 C 587.144531 199.800781 584.417969 202.160156 582.84375 205.691406 C 581.25 209.246094 580.808594 212.695312 580.808594 215.785156 C 580.808594 218.085938 581.027344 221.980469 582.945312 226.117188 C 584.480469 229.449219 587.105469 231.769531 587.488281 231.769531 C 587.648438 231.769531 587.710938 231.707031 587.710938 231.585938 Z M 587.710938 231.585938 "/>
<path style=" stroke:none;fill-rule:nonzero;fill:rgb(0%,0%,0%);fill-opacity:1;" d="M 604.4375 210.71875 C 603.40625 210.898438 603.023438 211.667969 603.023438 212.292969 C 603.023438 213.058594 603.628906 213.300781 604.074219 213.300781 C 605.042969 213.300781 605.707031 212.472656 605.707031 211.605469 C 605.707031 210.273438 604.175781 209.667969 602.820312 209.667969 C 600.882812 209.667969 599.792969 211.585938 599.511719 212.191406 C 598.765625 209.789062 596.789062 209.667969 596.203125 209.667969 C 592.933594 209.667969 591.214844 213.847656 591.214844 214.550781 C 591.214844 214.695312 591.335938 214.855469 591.558594 214.855469 C 591.820312 214.855469 591.882812 214.652344 591.941406 214.53125 C 593.03125 210.980469 595.171875 210.292969 596.101562 210.292969 C 597.554688 210.292969 597.835938 211.644531 597.835938 212.414062 C 597.835938 213.121094 597.65625 213.847656 597.25 215.378906 L 596.183594 219.78125 C 595.695312 221.699219 594.769531 223.453125 593.074219 223.453125 C 592.910156 223.453125 592.105469 223.453125 591.4375 223.050781 C 592.589844 222.808594 592.851562 221.859375 592.851562 221.476562 C 592.851562 220.828125 592.367188 220.445312 591.761719 220.445312 C 590.996094 220.445312 590.148438 221.113281 590.148438 222.140625 C 590.148438 223.492188 591.660156 224.097656 593.03125 224.097656 C 594.566406 224.097656 595.65625 222.886719 596.34375 221.578125 C 596.847656 223.453125 598.441406 224.097656 599.632812 224.097656 C 602.902344 224.097656 604.617188 219.902344 604.617188 219.195312 C 604.617188 219.035156 604.496094 218.914062 604.296875 218.914062 C 604.011719 218.914062 603.992188 219.074219 603.890625 219.335938 C 603.023438 222.140625 601.167969 223.453125 599.734375 223.453125 C 598.605469 223.453125 598 222.625 598 221.3125 C 598 220.609375 598.121094 220.101562 598.644531 217.984375 L 599.753906 213.625 C 600.238281 211.707031 601.328125 210.292969 602.800781 210.292969 C 602.863281 210.292969 603.75 210.292969 604.4375 210.71875 Z M 604.4375 210.71875 "/>
<g clip-path="url(#clip4)" clip-rule="nonzero">
<path style=" stroke:none;fill-rule:nonzero;fill:rgb(0%,0%,0%);fill-opacity:1;" d="M 615.589844 212.941406 C 615.589844 212.253906 615.550781 212.234375 615.105469 212.234375 C 613.855469 213.726562 611.976562 214.210938 610.183594 214.273438 C 610.082031 214.273438 609.917969 214.273438 609.898438 214.332031 C 609.859375 214.414062 609.859375 214.476562 609.859375 215.140625 C 610.847656 215.140625 612.523438 214.9375 613.792969 214.171875 L 613.792969 231.046875 C 613.792969 232.175781 613.734375 232.558594 610.96875 232.558594 L 610.019531 232.558594 L 610.019531 233.386719 C 611.554688 233.347656 613.148438 233.324219 614.683594 233.324219 C 616.238281 233.324219 617.832031 233.347656 619.363281 233.386719 L 619.363281 232.558594 L 618.394531 232.558594 C 615.652344 232.558594 615.589844 232.195312 615.589844 231.046875 Z M 615.589844 212.941406 "/>
</g>
<path style=" stroke:none;fill-rule:nonzero;fill:rgb(0%,0%,0%);fill-opacity:1;" d="M 628.636719 223.898438 C 628.636719 222.039062 628.03125 220.667969 626.71875 220.667969 C 625.691406 220.667969 625.1875 221.496094 625.1875 222.203125 C 625.1875 222.910156 625.671875 223.777344 626.761719 223.777344 C 627.164062 223.777344 627.527344 223.65625 627.808594 223.351562 C 627.871094 223.292969 627.910156 223.292969 627.929688 223.292969 C 628.011719 223.292969 628.011719 223.734375 628.011719 223.898438 C 628.011719 224.96875 627.808594 227.046875 625.953125 229.125 C 625.609375 229.507812 625.609375 229.570312 625.609375 229.628906 C 625.609375 229.789062 625.769531 229.953125 625.914062 229.953125 C 626.175781 229.953125 628.636719 227.589844 628.636719 223.898438 Z M 628.636719 223.898438 "/>
<path style=" stroke:none;fill-rule:nonzero;fill:rgb(0%,0%,0%);fill-opacity:1;" d="M 651.632812 210.71875 C 650.605469 210.898438 650.222656 211.667969 650.222656 212.292969 C 650.222656 213.058594 650.828125 213.300781 651.269531 213.300781 C 652.238281 213.300781 652.90625 212.472656 652.90625 211.605469 C 652.90625 210.273438 651.371094 209.667969 650.019531 209.667969 C 648.082031 209.667969 646.992188 211.585938 646.710938 212.191406 C 645.960938 209.789062 643.984375 209.667969 643.398438 209.667969 C 640.128906 209.667969 638.414062 213.847656 638.414062 214.550781 C 638.414062 214.695312 638.535156 214.855469 638.757812 214.855469 C 639.019531 214.855469 639.082031 214.652344 639.140625 214.53125 C 640.230469 210.980469 642.371094 210.292969 643.296875 210.292969 C 644.75 210.292969 645.035156 211.644531 645.035156 212.414062 C 645.035156 213.121094 644.851562 213.847656 644.449219 215.378906 L 643.378906 219.78125 C 642.894531 221.699219 641.964844 223.453125 640.269531 223.453125 C 640.109375 223.453125 639.300781 223.453125 638.636719 223.050781 C 639.785156 222.808594 640.050781 221.859375 640.050781 221.476562 C 640.050781 220.828125 639.566406 220.445312 638.960938 220.445312 C 638.191406 220.445312 637.34375 221.113281 637.34375 222.140625 C 637.34375 223.492188 638.859375 224.097656 640.230469 224.097656 C 641.765625 224.097656 642.855469 222.886719 643.539062 221.578125 C 644.046875 223.453125 645.640625 224.097656 646.832031 224.097656 C 650.101562 224.097656 651.816406 219.902344 651.816406 219.195312 C 651.816406 219.035156 651.695312 218.914062 651.492188 218.914062 C 651.210938 218.914062 651.191406 219.074219 651.089844 219.335938 C 650.222656 222.140625 648.363281 223.453125 646.929688 223.453125 C 645.800781 223.453125 645.195312 222.625 645.195312 221.3125 C 645.195312 220.609375 645.316406 220.101562 645.839844 217.984375 L 646.953125 213.625 C 647.4375 211.707031 648.527344 210.292969 650 210.292969 C 650.058594 210.292969 650.949219 210.292969 651.632812 210.71875 Z M 651.632812 210.71875 "/>
<g clip-path="url(#clip5)" clip-rule="nonzero">
<path style=" stroke:none;fill-rule:nonzero;fill:rgb(0%,0%,0%);fill-opacity:1;" d="M 667.601562 228.421875 L 667.035156 228.421875 C 666.710938 230.703125 666.449219 231.085938 666.328125 231.265625 C 666.167969 231.53125 663.867188 231.53125 663.421875 231.53125 L 657.265625 231.53125 C 658.417969 230.277344 660.65625 228.019531 663.382812 225.394531 C 665.339844 223.539062 667.601562 221.359375 667.601562 218.1875 C 667.601562 214.414062 664.59375 212.234375 661.242188 212.234375 C 657.710938 212.234375 655.570312 215.324219 655.570312 218.207031 C 655.570312 219.460938 656.5 219.621094 656.882812 219.621094 C 657.207031 219.621094 658.15625 219.441406 658.15625 218.308594 C 658.15625 217.320312 657.328125 217.039062 656.882812 217.039062 C 656.703125 217.039062 656.5 217.058594 656.378906 217.117188 C 656.984375 214.414062 658.839844 213.0625 660.800781 213.0625 C 663.585938 213.0625 665.402344 215.261719 665.402344 218.1875 C 665.402344 220.972656 663.765625 223.375 661.949219 225.453125 L 655.570312 232.660156 L 655.570312 233.386719 L 666.832031 233.386719 Z M 667.601562 228.421875 "/>
</g>
<path style=" stroke:none;fill-rule:nonzero;fill:rgb(0%,0%,0%);fill-opacity:1;" d="M 675.824219 223.898438 C 675.824219 222.039062 675.21875 220.667969 673.90625 220.667969 C 672.878906 220.667969 672.371094 221.496094 672.371094 222.203125 C 672.371094 222.910156 672.855469 223.777344 673.945312 223.777344 C 674.351562 223.777344 674.714844 223.65625 674.996094 223.351562 C 675.058594 223.292969 675.097656 223.292969 675.117188 223.292969 C 675.199219 223.292969 675.199219 223.734375 675.199219 223.898438 C 675.199219 224.96875 674.996094 227.046875 673.140625 229.125 C 672.796875 229.507812 672.796875 229.570312 672.796875 229.628906 C 672.796875 229.789062 672.957031 229.953125 673.097656 229.953125 C 673.363281 229.953125 675.824219 227.589844 675.824219 223.898438 Z M 675.824219 223.898438 "/>
<path style=" stroke:none;fill-rule:nonzero;fill:rgb(0%,0%,0%);fill-opacity:1;" d="M 690.082031 210.898438 L 693.027344 210.898438 C 693.632812 210.898438 693.957031 210.898438 693.957031 210.335938 C 693.957031 209.972656 693.753906 209.972656 693.109375 209.972656 L 690.304688 209.972656 L 691.492188 205.308594 C 691.613281 204.863281 691.613281 204.804688 691.613281 204.5625 C 691.613281 204.058594 691.191406 203.773438 690.789062 203.773438 C 690.523438 203.773438 689.796875 203.875 689.535156 204.886719 L 688.285156 209.972656 L 685.277344 209.972656 C 684.632812 209.972656 684.347656 209.972656 684.347656 210.597656 C 684.347656 210.898438 684.570312 210.898438 685.175781 210.898438 L 688.023438 210.898438 L 685.921875 219.355469 C 685.660156 220.488281 685.558594 220.808594 685.558594 221.214844 C 685.558594 222.726562 686.609375 224.097656 688.40625 224.097656 C 691.636719 224.097656 693.371094 219.417969 693.371094 219.195312 C 693.371094 219.011719 693.25 218.914062 693.046875 218.914062 C 692.988281 218.914062 692.867188 218.914062 692.804688 219.035156 C 692.765625 219.074219 692.726562 219.09375 692.503906 219.617188 C 691.835938 221.214844 690.363281 223.453125 688.507812 223.453125 C 687.539062 223.453125 687.476562 222.644531 687.476562 221.960938 C 687.476562 221.917969 687.476562 221.3125 687.578125 220.929688 Z M 690.082031 210.898438 "/>
<path style=" stroke:none;fill-rule:nonzero;fill:rgb(0%,0%,0%);fill-opacity:1;" d="M 703.367188 215.804688 C 703.367188 213.503906 703.144531 209.585938 701.230469 205.46875 C 699.695312 202.140625 697.070312 199.800781 696.6875 199.800781 C 696.585938 199.800781 696.464844 199.839844 696.464844 200 C 696.464844 200.0625 696.484375 200.082031 696.527344 200.164062 C 698.058594 201.757812 701.957031 205.8125 701.957031 215.785156 C 701.957031 225.753906 698.082031 229.832031 696.527344 231.425781 C 696.484375 231.484375 696.464844 231.527344 696.464844 231.585938 C 696.464844 231.75 696.585938 231.769531 696.6875 231.769531 C 697.03125 231.769531 699.753906 229.40625 701.328125 225.894531 C 702.925781 222.34375 703.367188 218.871094 703.367188 215.804688 Z M 703.367188 215.804688 "/>
<path style=" stroke:none;fill-rule:nonzero;fill:rgb(0%,0%,0%);fill-opacity:1;" d="M 632.589844 467.382812 C 632.589844 467.34375 632.589844 467.285156 632.511719 467.183594 C 631.039062 465.6875 627.101562 461.59375 627.101562 451.601562 C 627.101562 441.613281 630.957031 437.554688 632.53125 435.960938 C 632.53125 435.921875 632.589844 435.859375 632.589844 435.757812 C 632.589844 435.65625 632.511719 435.597656 632.371094 435.597656 C 632.027344 435.597656 629.300781 437.957031 627.726562 441.492188 C 626.132812 445.042969 625.6875 448.492188 625.6875 451.582031 C 625.6875 453.882812 625.910156 457.777344 627.828125 461.914062 C 629.363281 465.246094 631.984375 467.566406 632.371094 467.566406 C 632.53125 467.566406 632.589844 467.503906 632.589844 467.382812 Z M 632.589844 467.382812 "/>
<path style=" stroke:none;fill-rule:nonzero;fill:rgb(0%,0%,0%);fill-opacity:1;" d="M 642.558594 463.167969 C 641.691406 464.378906 640.4375 465.46875 638.882812 465.46875 C 638.5 465.46875 636.96875 465.40625 636.484375 463.933594 C 636.582031 463.953125 636.726562 463.953125 636.804688 463.953125 C 637.753906 463.953125 638.398438 463.125 638.398438 462.398438 C 638.398438 461.652344 637.792969 461.390625 637.308594 461.390625 C 636.804688 461.390625 635.675781 461.773438 635.675781 463.347656 C 635.675781 464.984375 637.046875 466.113281 638.882812 466.113281 C 642.074219 466.113281 645.324219 463.167969 646.210938 459.613281 L 649.339844 447.121094 C 649.378906 446.960938 649.441406 446.777344 649.441406 446.578125 C 649.441406 446.09375 649.054688 445.769531 648.570312 445.769531 C 648.289062 445.769531 647.625 445.910156 647.359375 446.859375 L 645 456.285156 C 644.839844 456.847656 644.839844 456.910156 644.574219 457.273438 C 643.929688 458.160156 642.878906 459.25 641.347656 459.25 C 639.550781 459.25 639.390625 457.496094 639.390625 456.628906 C 639.390625 454.8125 640.257812 452.347656 641.125 450.027344 C 641.46875 449.097656 641.667969 448.65625 641.667969 448.007812 C 641.667969 446.675781 640.699219 445.464844 639.125 445.464844 C 636.199219 445.464844 635.007812 450.109375 635.007812 450.351562 C 635.007812 450.492188 635.128906 450.652344 635.351562 450.652344 C 635.65625 450.652344 635.675781 450.511719 635.796875 450.066406 C 636.582031 447.382812 637.792969 446.09375 639.046875 446.09375 C 639.328125 446.09375 639.875 446.09375 639.875 447.160156 C 639.875 447.988281 639.511719 448.917969 639.046875 450.128906 C 637.472656 454.328125 637.472656 455.375 637.472656 456.144531 C 637.472656 459.191406 639.652344 459.898438 641.246094 459.898438 C 642.175781 459.898438 643.324219 459.613281 644.453125 458.421875 L 644.476562 458.445312 C 643.992188 460.339844 643.6875 461.59375 642.558594 463.167969 Z M 642.558594 463.167969 "/>
<g clip-path="url(#clip6)" clip-rule="nonzero">
<path style=" stroke:none;fill-rule:nonzero;fill:rgb(0%,0%,0%);fill-opacity:1;" d="M 657.945312 448.738281 C 657.945312 448.054688 657.902344 448.03125 657.460938 448.03125 C 656.207031 449.527344 654.332031 450.011719 652.535156 450.070312 C 652.433594 450.070312 652.273438 450.070312 652.253906 450.132812 C 652.210938 450.210938 652.210938 450.273438 652.210938 450.9375 C 653.199219 450.9375 654.875 450.738281 656.148438 449.96875 L 656.148438 466.84375 C 656.148438 467.972656 656.085938 468.355469 653.320312 468.355469 L 652.375 468.355469 L 652.375 469.183594 C 653.90625 469.144531 655.5 469.125 657.035156 469.125 C 658.589844 469.125 660.183594 469.144531 661.71875 469.183594 L 661.71875 468.355469 L 660.75 468.355469 C 658.003906 468.355469 657.945312 467.992188 657.945312 466.84375 Z M 657.945312 448.738281 "/>
</g>
<path style=" stroke:none;fill-rule:nonzero;fill:rgb(0%,0%,0%);fill-opacity:1;" d="M 670.992188 459.695312 C 670.992188 457.839844 670.386719 456.464844 669.074219 456.464844 C 668.042969 456.464844 667.539062 457.292969 667.539062 458 C 667.539062 458.707031 668.023438 459.574219 669.113281 459.574219 C 669.515625 459.574219 669.878906 459.453125 670.164062 459.148438 C 670.222656 459.089844 670.265625 459.089844 670.285156 459.089844 C 670.363281 459.089844 670.363281 459.535156 670.363281 459.695312 C 670.363281 460.765625 670.164062 462.84375 668.304688 464.921875 C 667.964844 465.304688 667.964844 465.367188 667.964844 465.425781 C 667.964844 465.589844 668.125 465.75 668.265625 465.75 C 668.527344 465.75 670.992188 463.386719 670.992188 459.695312 Z M 670.992188 459.695312 "/>
<path style=" stroke:none;fill-rule:nonzero;fill:rgb(0%,0%,0%);fill-opacity:1;" d="M 687.226562 463.167969 C 686.359375 464.378906 685.105469 465.46875 683.550781 465.46875 C 683.167969 465.46875 681.636719 465.40625 681.152344 463.933594 C 681.25 463.953125 681.394531 463.953125 681.472656 463.953125 C 682.421875 463.953125 683.066406 463.125 683.066406 462.398438 C 683.066406 461.652344 682.460938 461.390625 681.976562 461.390625 C 681.472656 461.390625 680.34375 461.773438 680.34375 463.347656 C 680.34375 464.984375 681.714844 466.113281 683.550781 466.113281 C 686.742188 466.113281 689.992188 463.167969 690.878906 459.613281 L 694.007812 447.121094 C 694.046875 446.960938 694.109375 446.777344 694.109375 446.578125 C 694.109375 446.09375 693.722656 445.769531 693.238281 445.769531 C 692.957031 445.769531 692.292969 445.910156 692.027344 446.859375 L 689.667969 456.285156 C 689.507812 456.847656 689.507812 456.910156 689.242188 457.273438 C 688.597656 458.160156 687.546875 459.25 686.015625 459.25 C 684.21875 459.25 684.058594 457.496094 684.058594 456.628906 C 684.058594 454.8125 684.925781 452.347656 685.792969 450.027344 C 686.136719 449.097656 686.335938 448.65625 686.335938 448.007812 C 686.335938 446.675781 685.367188 445.464844 683.792969 445.464844 C 680.867188 445.464844 679.675781 450.109375 679.675781 450.351562 C 679.675781 450.492188 679.796875 450.652344 680.019531 450.652344 C 680.324219 450.652344 680.34375 450.511719 680.464844 450.066406 C 681.25 447.382812 682.460938 446.09375 683.714844 446.09375 C 683.996094 446.09375 684.542969 446.09375 684.542969 447.160156 C 684.542969 447.988281 684.179688 448.917969 683.714844 450.128906 C 682.140625 454.328125 682.140625 455.375 682.140625 456.144531 C 682.140625 459.191406 684.320312 459.898438 685.914062 459.898438 C 686.84375 459.898438 687.992188 459.613281 689.121094 458.421875 L 689.144531 458.445312 C 688.660156 460.339844 688.355469 461.59375 687.226562 463.167969 Z M 687.226562 463.167969 "/>
<g clip-path="url(#clip7)" clip-rule="nonzero">
<path style=" stroke:none;fill-rule:nonzero;fill:rgb(0%,0%,0%);fill-opacity:1;" d="M 707.425781 464.21875 L 706.859375 464.21875 C 706.535156 466.5 706.273438 466.882812 706.152344 467.066406 C 705.992188 467.328125 703.691406 467.328125 703.246094 467.328125 L 697.089844 467.328125 C 698.242188 466.074219 700.480469 463.816406 703.207031 461.191406 C 705.164062 459.335938 707.425781 457.15625 707.425781 453.988281 C 707.425781 450.210938 704.417969 448.03125 701.066406 448.03125 C 697.535156 448.03125 695.394531 451.121094 695.394531 454.007812 C 695.394531 455.257812 696.324219 455.417969 696.707031 455.417969 C 697.03125 455.417969 697.980469 455.238281 697.980469 454.109375 C 697.980469 453.117188 697.152344 452.835938 696.707031 452.835938 C 696.527344 452.835938 696.324219 452.855469 696.203125 452.917969 C 696.808594 450.210938 698.664062 448.859375 700.625 448.859375 C 703.410156 448.859375 705.226562 451.058594 705.226562 453.988281 C 705.226562 456.773438 703.589844 459.171875 701.773438 461.253906 L 695.394531 468.457031 L 695.394531 469.183594 L 706.65625 469.183594 Z M 707.425781 464.21875 "/>
</g>
<path style=" stroke:none;fill-rule:nonzero;fill:rgb(0%,0%,0%);fill-opacity:1;" d="M 715.648438 459.695312 C 715.648438 457.839844 715.042969 456.464844 713.730469 456.464844 C 712.699219 456.464844 712.195312 457.292969 712.195312 458 C 712.195312 458.707031 712.679688 459.574219 713.769531 459.574219 C 714.175781 459.574219 714.539062 459.453125 714.820312 459.148438 C 714.878906 459.089844 714.921875 459.089844 714.941406 459.089844 C 715.023438 459.089844 715.023438 459.535156 715.023438 459.695312 C 715.023438 460.765625 714.820312 462.84375 712.964844 464.921875 C 712.621094 465.304688 712.621094 465.367188 712.621094 465.425781 C 712.621094 465.589844 712.78125 465.75 712.921875 465.75 C 713.183594 465.75 715.648438 463.386719 715.648438 459.695312 Z M 715.648438 459.695312 "/>
<path style=" stroke:none;fill-rule:nonzero;fill:rgb(0%,0%,0%);fill-opacity:1;" d="M 736.898438 449.300781 C 736.898438 447.34375 736.878906 444.011719 735.523438 441.449219 C 734.335938 439.210938 732.457031 438.421875 730.78125 438.421875 C 729.25 438.421875 727.289062 439.128906 726.078125 441.429688 C 724.808594 443.832031 724.667969 446.796875 724.667969 449.300781 C 724.667969 451.117188 724.707031 453.902344 725.695312 456.34375 C 727.066406 459.632812 729.53125 460.078125 730.78125 460.078125 C 732.253906 460.078125 734.496094 459.472656 735.808594 456.445312 C 736.777344 454.226562 736.898438 451.640625 736.898438 449.300781 Z M 730.78125 459.574219 C 728.742188 459.574219 727.511719 457.816406 727.066406 455.375 C 726.726562 453.5 726.726562 450.734375 726.726562 448.9375 C 726.726562 446.476562 726.726562 444.4375 727.128906 442.480469 C 727.753906 439.753906 729.53125 438.925781 730.78125 438.925781 C 732.09375 438.925781 733.789062 439.796875 734.394531 442.417969 C 734.820312 444.234375 734.859375 446.394531 734.859375 448.9375 C 734.859375 451.035156 734.859375 453.578125 734.476562 455.476562 C 733.789062 458.96875 731.914062 459.574219 730.78125 459.574219 Z M 730.78125 459.574219 "/>
<path style=" stroke:none;fill-rule:nonzero;fill:rgb(0%,0%,0%);fill-opacity:1;" d="M 746.554688 451.601562 C 746.554688 449.300781 746.332031 445.386719 744.414062 441.269531 C 742.882812 437.9375 740.257812 435.597656 739.875 435.597656 C 739.773438 435.597656 739.652344 435.636719 739.652344 435.800781 C 739.652344 435.859375 739.671875 435.878906 739.714844 435.960938 C 741.246094 437.554688 745.140625 441.613281 745.140625 451.582031 C 745.140625 461.550781 741.265625 465.628906 739.714844 467.222656 C 739.671875 467.285156 739.652344 467.324219 739.652344 467.382812 C 739.652344 467.546875 739.773438 467.566406 739.875 467.566406 C 740.21875 467.566406 742.941406 465.203125 744.515625 461.691406 C 746.109375 458.140625 746.554688 454.667969 746.554688 451.601562 Z M 746.554688 451.601562 "/>
<g clip-path="url(#clip8)" clip-rule="nonzero">
<path style=" stroke:none;fill-rule:nonzero;fill:rgb(0%,0%,0%);fill-opacity:1;" d="M 455.257812 533.445312 C 455.257812 533.402344 455.257812 533.34375 455.175781 533.242188 C 453.703125 531.75 449.765625 527.652344 449.765625 517.660156 C 449.765625 507.671875 453.621094 503.613281 455.195312 502.019531 C 455.195312 501.980469 455.257812 501.917969 455.257812 501.820312 C 455.257812 501.71875 455.175781 501.65625 455.035156 501.65625 C 454.691406 501.65625 451.96875 504.019531 450.394531 507.550781 C 448.796875 511.101562 448.355469 514.554688 448.355469 517.640625 C 448.355469 519.941406 448.578125 523.835938 450.492188 527.976562 C 452.027344 531.304688 454.652344 533.625 455.035156 533.625 C 455.195312 533.625 455.257812 533.566406 455.257812 533.445312 Z M 455.257812 533.445312 "/>
</g>
<path style=" stroke:none;fill-rule:nonzero;fill:rgb(0%,0%,0%);fill-opacity:1;" d="M 470.246094 515.359375 C 470.246094 513.402344 470.226562 510.074219 468.875 507.511719 C 467.683594 505.269531 465.808594 504.484375 464.132812 504.484375 C 462.597656 504.484375 460.640625 505.1875 459.429688 507.488281 C 458.15625 509.890625 458.015625 512.859375 458.015625 515.359375 C 458.015625 517.175781 458.058594 519.960938 459.046875 522.40625 C 460.417969 525.695312 462.878906 526.136719 464.132812 526.136719 C 465.605469 526.136719 467.847656 525.53125 469.15625 522.503906 C 470.125 520.285156 470.246094 517.703125 470.246094 515.359375 Z M 464.132812 525.632812 C 462.09375 525.632812 460.863281 523.878906 460.417969 521.4375 C 460.074219 519.558594 460.074219 516.792969 460.074219 514.996094 C 460.074219 512.535156 460.074219 510.496094 460.480469 508.539062 C 461.105469 505.816406 462.878906 504.988281 464.132812 504.988281 C 465.445312 504.988281 467.140625 505.855469 467.746094 508.480469 C 468.167969 510.296875 468.210938 512.453125 468.210938 514.996094 C 468.210938 517.097656 468.210938 519.640625 467.824219 521.535156 C 467.140625 525.027344 465.261719 525.632812 464.132812 525.632812 Z M 464.132812 525.632812 "/>
<path style=" stroke:none;fill-rule:nonzero;fill:rgb(0%,0%,0%);fill-opacity:1;" d="M 477.726562 525.753906 C 477.726562 523.898438 477.121094 522.527344 475.808594 522.527344 C 474.78125 522.527344 474.277344 523.351562 474.277344 524.058594 C 474.277344 524.765625 474.761719 525.632812 475.851562 525.632812 C 476.253906 525.632812 476.617188 525.511719 476.898438 525.210938 C 476.960938 525.148438 477 525.148438 477.019531 525.148438 C 477.101562 525.148438 477.101562 525.59375 477.101562 525.753906 C 477.101562 526.824219 476.898438 528.902344 475.042969 530.980469 C 474.699219 531.367188 474.699219 531.425781 474.699219 531.488281 C 474.699219 531.648438 474.863281 531.808594 475.003906 531.808594 C 475.265625 531.808594 477.726562 529.449219 477.726562 525.753906 Z M 477.726562 525.753906 "/>
<path style=" stroke:none;fill-rule:nonzero;fill:rgb(0%,0%,0%);fill-opacity:1;" d="M 498.976562 515.359375 C 498.976562 513.402344 498.957031 510.074219 497.605469 507.511719 C 496.414062 505.269531 494.535156 504.484375 492.863281 504.484375 C 491.328125 504.484375 489.371094 505.1875 488.160156 507.488281 C 486.886719 509.890625 486.746094 512.859375 486.746094 515.359375 C 486.746094 517.175781 486.785156 519.960938 487.777344 522.40625 C 489.148438 525.695312 491.609375 526.136719 492.863281 526.136719 C 494.335938 526.136719 496.574219 525.53125 497.886719 522.503906 C 498.855469 520.285156 498.976562 517.703125 498.976562 515.359375 Z M 492.863281 525.632812 C 490.824219 525.632812 489.59375 523.878906 489.148438 521.4375 C 488.804688 519.558594 488.804688 516.792969 488.804688 514.996094 C 488.804688 512.535156 488.804688 510.496094 489.207031 508.539062 C 489.835938 505.816406 491.609375 504.988281 492.863281 504.988281 C 494.171875 504.988281 495.867188 505.855469 496.472656 508.480469 C 496.898438 510.296875 496.9375 512.453125 496.9375 514.996094 C 496.9375 517.097656 496.9375 519.640625 496.554688 521.535156 C 495.867188 525.027344 493.992188 525.632812 492.863281 525.632812 Z M 492.863281 525.632812 "/>
<path style=" stroke:none;fill-rule:nonzero;fill:rgb(0%,0%,0%);fill-opacity:1;" d="M 506.453125 525.753906 C 506.453125 523.898438 505.847656 522.527344 504.535156 522.527344 C 503.507812 522.527344 503.003906 523.351562 503.003906 524.058594 C 503.003906 524.765625 503.488281 525.632812 504.578125 525.632812 C 504.980469 525.632812 505.34375 525.511719 505.625 525.210938 C 505.6875 525.148438 505.726562 525.148438 505.746094 525.148438 C 505.828125 525.148438 505.828125 525.59375 505.828125 525.753906 C 505.828125 526.824219 505.625 528.902344 503.769531 530.980469 C 503.425781 531.367188 503.425781 531.425781 503.425781 531.488281 C 503.425781 531.648438 503.589844 531.808594 503.730469 531.808594 C 503.992188 531.808594 506.453125 529.449219 506.453125 525.753906 Z M 506.453125 525.753906 "/>
<path style=" stroke:none;fill-rule:nonzero;fill:rgb(0%,0%,0%);fill-opacity:1;" d="M 535.351562 518.265625 C 535.898438 518.265625 536.484375 518.265625 536.484375 517.640625 C 536.484375 516.996094 535.898438 516.996094 535.351562 516.996094 L 518.035156 516.996094 C 517.492188 516.996094 516.925781 516.996094 516.925781 517.640625 C 516.925781 518.265625 517.492188 518.265625 518.035156 518.265625 Z M 535.351562 518.265625 "/>
<g clip-path="url(#clip9)" clip-rule="nonzero">
<path style=" stroke:none;fill-rule:nonzero;fill:rgb(0%,0%,0%);fill-opacity:1;" d="M 547.679688 505.1875 C 547.679688 504.503906 547.640625 504.484375 547.195312 504.484375 C 545.945312 505.976562 544.070312 506.460938 542.273438 506.519531 C 542.171875 506.519531 542.011719 506.519531 541.988281 506.582031 C 541.949219 506.664062 541.949219 506.722656 541.949219 507.390625 C 542.9375 507.390625 544.613281 507.1875 545.886719 506.421875 L 545.886719 523.292969 C 545.886719 524.421875 545.824219 524.804688 543.058594 524.804688 L 542.109375 524.804688 L 542.109375 525.632812 C 543.644531 525.59375 545.238281 525.574219 546.773438 525.574219 C 548.328125 525.574219 549.921875 525.59375 551.457031 525.632812 L 551.457031 524.804688 L 550.488281 524.804688 C 547.742188 524.804688 547.679688 524.441406 547.679688 523.292969 Z M 547.679688 505.1875 "/>
</g>
<g clip-path="url(#clip10)" clip-rule="nonzero">
<path style=" stroke:none;fill-rule:nonzero;fill:rgb(0%,0%,0%);fill-opacity:1;" d="M 562.261719 517.660156 C 562.261719 515.359375 562.042969 511.445312 560.125 507.328125 C 558.589844 504 555.964844 501.65625 555.582031 501.65625 C 555.480469 501.65625 555.359375 501.699219 555.359375 501.859375 C 555.359375 501.917969 555.382812 501.941406 555.421875 502.019531 C 556.957031 503.613281 560.851562 507.671875 560.851562 517.640625 C 560.851562 527.613281 556.976562 531.6875 555.421875 533.28125 C 555.382812 533.34375 555.359375 533.382812 555.359375 533.445312 C 555.359375 533.605469 555.480469 533.625 555.582031 533.625 C 555.925781 533.625 558.652344 531.265625 560.226562 527.753906 C 561.820312 524.199219 562.261719 520.730469 562.261719 517.660156 Z M 562.261719 517.660156 "/>
</g>
<path style="fill:none;stroke-width:0.751178;stroke-linecap:butt;stroke-linejoin:miter;stroke:rgb(0%,0%,0%);stroke-opacity:1;stroke-miterlimit:4;" d="M 540.863281 706.417969 L 540.863281 285.464844 M 540.863281 201.984375 L 540.863281 10.066406 "/>
<path style="fill-rule:evenodd;fill:rgb(0%,0%,0%);fill-opacity:1;stroke-width:1.889764;stroke-linecap:butt;stroke-linejoin:miter;stroke:rgb(0%,0%,0%);stroke-opacity:1;stroke-miterlimit:4;" d="M -1.886719 540.863281 L -14.148438 547.949219 L -14.148438 533.777344 Z M -1.886719 540.863281 " transform="matrix(0,-1,1,0,0,0)"/>
</g>
</svg>
